# xmcd
#
# Track frame offsets:
#	150
#	8990
#	19632
#	29396
#	39702
#	51114
#	61537
#	71909
#	81697
#	90703
#	102722
#	113125
#	123054
#	132814
#	145902
#	156455
#	168650
#	178447
#	190452
#	200681
#	210648
#	221632
#	233513
#	243131
#	253736
#
# Disc length: 3529 seconds
#
# Revision: 3
# Processed by: cddbd v1.5.2PL0 Copyright (c) Steve Scherf et al.
# Submitted via: audiograbber 1.83.01
#
DISCID=750dc719
DTITLE=Various Artist - Essential Rockabilly - The Sun Story  [CD1)
DYEAR=2011
DGENRE=Oldies
TTITLE0=Elvis Presley - That's All Right
TTITLE1=Malcom Yelvington - Rockin' With My Baby
TTITLE2=Wade and Dick - Bop, Bop Baby
TTITLE3=Jack Earls - Slow Down
TTITLE4=Billy Lee Riley - Red Hot
TTITLE5=Ray Harris - Come On Little Mama
TTITLE6=Sonny Burgess - My Bucket's Got A Hole On It
TTITLE7=Carl Perkins - Movie Mag
TTITLE8=Warren Smith - Ubangi Stomp
TTITLE9=Gene Simmons - Drinkin' Wine
TTITLE10=Edwin Bruce - Rock A Boppin' Baby
TTITLE11=Roy Orbison - Sweet And Easy To Love
TTITLE12=Marck Owen - Walkin' And Talkin'
TTITLE13=Barbara Pittman - I Need A Man
TTITLE14=Slim Rhodes - Gonna Romp And Stomp
TTITLE15=Jerry Lee Lewis - Breathless
TTITLE16=Warrent Smith - I've Got Love If You Want It
TTITLE17=Carl Perkins - Gone, Gone, Gone
TTITLE18=Sonny Burgess - We Wanna Boogie
TTITLE19=Johnny Cash - Get Rhythm
TTITLE20=Elvis Presley - Mistery Train
TTITLE21=Carl Mann - Pretend
TTITLE22=Roy Orbison - Go Go Go
TTITLE23=Dick Penner - Cindy Lou
TTITLE24=Sonny Burgess - Sadie's Back In Town
EXTD=
EXTT0=
EXTT1=
EXTT2=
EXTT3=
EXTT4=
EXTT5=
EXTT6=
EXTT7=
EXTT8=
EXTT9=
EXTT10=
EXTT11=
EXTT12=
EXTT13=
EXTT14=
EXTT15=
EXTT16=
EXTT17=
EXTT18=
EXTT19=
EXTT20=
EXTT21=
EXTT22=
EXTT23=
EXTT24=
PLAYORDER=
